<svg xmlns="http://www.w3.org/2000/svg" xml:space="preserve" width="711" height="800" viewBox="0 0 711 800">
  <path d="M664.406 286.157h-19.208V193.46c0-.583-.093-1.16-.169-1.751-.03-3.677-1.202-7.296-3.722-10.155L487.063 5.365c-.045-.05-.093-.064-.124-.11-.918-1.031-1.99-1.885-3.124-2.62a12.449 12.449 0 0 0-1.027-.611c-.98-.533-2.022-.98-3.095-1.303-.29-.076-.55-.196-.84-.275-1.168-.274-2.377-.446-3.6-.446H96.176c-17.31 0-31.371 14.079-31.371 31.373v254.775H45.599c-24.764 0-44.842 20.071-44.842 44.837v233.176c0 24.755 20.078 44.847 44.842 44.847h19.206V768.63c0 17.296 14.06 31.371 31.371 31.371h517.65c17.294 0 31.372-14.075 31.372-31.371V609.01h19.208c24.754 0 44.836-20.084 44.836-44.84V330.994c0-24.774-20.082-44.837-44.836-44.837ZM96.176 31.373h363.39v160.508c0 8.667 7.029 15.687 15.686 15.687h138.573v78.587H96.176V31.373Zm236.169 425.582c-38.928-13.556-64.292-35.095-64.292-69.144 0-39.985 33.356-70.573 88.615-70.573 26.42 0 45.883 5.56 59.775 11.829l-11.804 42.75c-9.381-4.533-26.062-11.135-49.01-11.135-22.933 0-34.054 10.431-34.054 22.594 0 14.951 13.2 21.55 43.452 33.022 41.352 15.29 60.816 36.826 60.816 69.852 0 39.262-30.234 72.642-94.537 72.642-26.757 0-53.182-6.969-66.384-14.255l10.768-43.796c14.258 7.316 36.149 14.6 58.749 14.6 24.324 0 37.189-10.08 37.189-25.383-.008-14.605-11.136-22.938-39.283-33.003Zm-83.003-90.64h-64.654V558.3h-53.761V366.315H67.342V321.3h182v45.014Zm364.483 393.811H96.176V609.01h517.65v151.117Zm-35.041-204.824H516.92l-75.07-234.235h58.053l28.49 99.062c7.994 27.79 15.29 54.55 20.863 83.747h1.035c5.906-28.157 13.197-55.958 21.194-82.72l29.893-100.09h56.319l-78.913 234.236Z"/>
</svg>
